<svg xmlns="http://www.w3.org/2000/svg" version="1.1" xmlns:xlink="http://www.w3.org/1999/xlink" width="200" height="200"><svg xmlns="http://www.w3.org/2000/svg" version="1.1" xmlns:xlink="http://www.w3.org/1999/xlink" width="200" height="200"><svg xmlns="http://www.w3.org/2000/svg" version="1.1" xmlns:xlink="http://www.w3.org/1999/xlink" viewBox="0 0 200 200"><rect width="200" height="200" fill="url('#gradient')"></rect><defs><linearGradient id="gradient" gradientTransform="rotate(245 0.5 0.5)"><stop offset="0%" stop-color="#141616"></stop><stop offset="100%" stop-color="#dce3d8"></stop></linearGradient></defs><g><g fill="#a1acb9" transform="matrix(1.4940130806640952,0,0,1.4940130806640952,11.802736235094741,107.66612309784212)" stroke="#141616" stroke-width="1"><path d="M12.71-7.60L12.71-1.76Q11.92-0.88 10.40-0.34Q8.88 0.20 7.06 0.20L7.06 0.20Q4.27 0.20 2.60-1.51Q0.93-3.22 0.81-6.27L0.81-6.27L0.80-7.50Q0.80-9.60 1.54-11.17Q2.29-12.73 3.67-13.58Q5.05-14.42 6.87-14.42L6.87-14.42Q9.52-14.42 10.99-13.21Q12.46-11.99 12.71-9.58L12.71-9.58L9.40-9.58Q9.23-10.77 8.64-11.28Q8.06-11.79 6.98-11.79L6.98-11.79Q5.69-11.79 4.99-10.69Q4.29-9.60 4.28-7.57L4.28-7.57L4.28-6.71Q4.28-4.58 5.00-3.51Q5.73-2.44 7.29-2.44L7.29-2.44Q8.63-2.44 9.29-3.04L9.29-3.04L9.29-5.24L6.90-5.24L6.90-7.60L12.71-7.60ZM19.67 0.20L19.67 0.20Q17.24 0.20 15.73-1.25Q14.23-2.71 14.23-5.03L14.23-5.03L14.23-5.30Q14.23-6.92 14.83-8.16Q15.43-9.40 16.58-10.08Q17.73-10.76 19.32-10.76L19.32-10.76Q21.54-10.76 22.83-9.38Q24.12-8.00 24.12-5.53L24.12-5.53L24.12-4.25L17.58-4.25Q17.75-3.36 18.35-2.85Q18.95-2.34 19.89-2.34L19.89-2.34Q21.46-2.34 22.33-3.44L22.33-3.44L23.84-1.66Q23.22-0.81 22.09-0.31Q20.97 0.20 19.67 0.20ZM19.30-8.22L19.30-8.22Q17.85-8.22 17.58-6.31L17.58-6.31L20.90-6.31L20.90-6.56Q20.92-7.35 20.50-7.79Q20.08-8.22 19.30-8.22ZM25.04-4.82L25.03-5.38Q25.03-6.96 25.64-8.20Q26.26-9.43 27.41-10.10Q28.56-10.76 30.12-10.76L30.12-10.76Q32.49-10.76 33.86-9.29Q35.22-7.82 35.22-5.29L35.22-5.29L35.22-5.18Q35.22-2.71 33.85-1.25Q32.48 0.20 30.14 0.20L30.14 0.20Q27.88 0.20 26.51-1.16Q25.15-2.51 25.04-4.82L25.04-4.82ZM28.33-5.77L28.32-5.18Q28.32-3.71 28.78-3.03Q29.24-2.34 30.14-2.34L30.14-2.34Q31.89-2.34 31.93-5.05L31.93-5.05L31.93-5.38Q31.93-8.22 30.12-8.22L30.12-8.22Q28.47-8.22 28.33-5.77L28.33-5.77ZM36.83-14.22L41.33-14.22L44.50-4.33L47.67-14.22L52.18-14.22L52.18 0L48.74 0L48.74-3.32L49.07-10.12L45.63 0L43.37 0L39.92-10.13L40.25-3.32L40.25 0L36.83 0L36.83-14.22ZM59.32 0.20L59.32 0.20Q56.88 0.20 55.38-1.25Q53.88-2.71 53.88-5.03L53.88-5.03L53.88-5.30Q53.88-6.92 54.48-8.16Q55.08-9.40 56.23-10.08Q57.38-10.76 58.96-10.76L58.96-10.76Q61.19-10.76 62.48-9.38Q63.77-8.00 63.77-5.53L63.77-5.53L63.77-4.25L57.23-4.25Q57.40-3.36 58.00-2.85Q58.59-2.34 59.54-2.34L59.54-2.34Q61.10-2.34 61.98-3.44L61.98-3.44L63.49-1.66Q62.87-0.81 61.74-0.31Q60.62 0.20 59.32 0.20ZM58.95-8.22L58.95-8.22Q57.50-8.22 57.23-6.31L57.23-6.31L60.55-6.31L60.55-6.56Q60.57-7.35 60.15-7.79Q59.73-8.22 58.95-8.22ZM70.63-2.97L70.63-2.97Q70.63-3.39 70.19-3.64Q69.75-3.90 68.52-4.17Q67.29-4.44 66.48-4.89Q65.68-5.33 65.26-5.97Q64.84-6.60 64.84-7.42L64.84-7.42Q64.84-8.88 66.04-9.82Q67.25-10.76 69.19-10.76L69.19-10.76Q71.28-10.76 72.55-9.81Q73.82-8.87 73.82-7.32L73.82-7.32L70.52-7.32Q70.52-8.59 69.18-8.59L69.18-8.59Q68.66-8.59 68.31-8.31Q67.96-8.02 67.96-7.59L67.96-7.59Q67.96-7.15 68.39-6.88Q68.82-6.60 69.76-6.43Q70.70-6.25 71.42-6.01L71.42-6.01Q73.80-5.19 73.80-3.07L73.80-3.07Q73.80-1.62 72.51-0.71Q71.23 0.20 69.19 0.20L69.19 0.20Q67.83 0.20 66.77-0.29Q65.70-0.78 65.11-1.62Q64.51-2.46 64.51-3.39L64.51-3.39L67.59-3.39Q67.61-2.66 68.08-2.32Q68.54-1.98 69.28-1.98L69.28-1.98Q69.95-1.98 70.29-2.26Q70.63-2.53 70.63-2.97ZM80.87-2.97L80.87-2.97Q80.87-3.39 80.43-3.64Q79.99-3.90 78.76-4.17Q77.53-4.44 76.73-4.89Q75.93-5.33 75.51-5.97Q75.09-6.60 75.09-7.42L75.09-7.42Q75.09-8.88 76.29-9.82Q77.49-10.76 79.43-10.76L79.43-10.76Q81.52-10.76 82.79-9.81Q84.06-8.87 84.06-7.32L84.06-7.32L80.76-7.32Q80.76-8.59 79.42-8.59L79.42-8.59Q78.91-8.59 78.55-8.31Q78.20-8.02 78.20-7.59L78.20-7.59Q78.20-7.15 78.63-6.88Q79.06-6.60 80.00-6.43Q80.95-6.25 81.66-6.01L81.66-6.01Q84.04-5.19 84.04-3.07L84.04-3.07Q84.04-1.62 82.76-0.71Q81.47 0.20 79.43 0.20L79.43 0.20Q78.08 0.20 77.01-0.29Q75.95-0.78 75.35-1.62Q74.76-2.46 74.76-3.39L74.76-3.39L77.83-3.39Q77.85-2.66 78.32-2.32Q78.79-1.98 79.52-1.98L79.52-1.98Q80.20-1.98 80.53-2.26Q80.87-2.53 80.87-2.97ZM94.82 0L91.53 0Q91.36-0.32 91.22-0.95L91.22-0.95Q90.31 0.20 88.68 0.20L88.68 0.20Q87.19 0.20 86.14-0.71Q85.10-1.61 85.10-2.98L85.10-2.98Q85.10-4.70 86.37-5.58Q87.64-6.46 90.06-6.46L90.06-6.46L91.07-6.46L91.07-7.01Q91.07-8.47 89.81-8.47L89.81-8.47Q88.64-8.47 88.64-7.31L88.64-7.31L85.35-7.31Q85.35-8.85 86.66-9.80Q87.96-10.76 89.98-10.76Q92.00-10.76 93.17-9.78Q94.35-8.79 94.38-7.07L94.38-7.07L94.38-2.39Q94.39-0.94 94.82-0.17L94.82-0.17L94.82 0ZM89.47-2.15L89.47-2.15Q90.09-2.15 90.49-2.41Q90.90-2.68 91.07-3.01L91.07-3.01L91.07-4.70L90.12-4.70Q88.40-4.70 88.40-3.15L88.40-3.15Q88.40-2.71 88.70-2.43Q89.00-2.15 89.47-2.15ZM95.81-5.24L95.81-5.36Q95.81-6.96 96.34-8.19Q96.87-9.42 97.85-10.09Q98.84-10.76 100.15-10.76L100.15-10.76Q101.80-10.76 102.72-9.65L102.72-9.65L102.84-10.57L105.83-10.57L105.83-0.40Q105.83 1.00 105.18 2.03Q104.53 3.06 103.30 3.61Q102.07 4.16 100.45 4.16L100.45 4.16Q99.29 4.16 98.20 3.72Q97.11 3.28 96.53 2.58L96.53 2.58L97.91 0.64Q98.83 1.73 100.33 1.73L100.33 1.73Q102.52 1.73 102.52-0.52L102.52-0.52L102.52-0.85Q101.57 0.20 100.13 0.20L100.13 0.20Q98.19 0.20 97.00-1.28Q95.81-2.76 95.81-5.24L95.81-5.24ZM99.11-5.16L99.11-5.16Q99.11-3.86 99.60-3.10Q100.09-2.34 100.97-2.34L100.97-2.34Q102.03-2.34 102.52-3.06L102.52-3.06L102.52-7.50Q102.04-8.22 100.99-8.22L100.99-8.22Q100.11-8.22 99.61-7.44Q99.11-6.65 99.11-5.16ZM112.81 0.20L112.81 0.20Q110.38 0.20 108.88-1.25Q107.37-2.71 107.37-5.03L107.37-5.03L107.37-5.30Q107.37-6.92 107.97-8.16Q108.57-9.40 109.73-10.08Q110.88-10.76 112.46-10.76L112.46-10.76Q114.69-10.76 115.98-9.38Q117.27-8.00 117.27-5.53L117.27-5.53L117.27-4.25L110.72-4.25Q110.90-3.36 111.49-2.85Q112.09-2.34 113.04-2.34L113.04-2.34Q114.60-2.34 115.48-3.44L115.48-3.44L116.98-1.66Q116.37-0.81 115.24-0.31Q114.11 0.20 112.81 0.20ZM112.44-8.22L112.44-8.22Q111.00-8.22 110.72-6.31L110.72-6.31L114.04-6.31L114.04-6.56Q114.06-7.35 113.64-7.79Q113.22-8.22 112.44-8.22Z"></path></g></g></svg></svg><style>@media (prefers-color-scheme: light) { :root { filter: none; } }
@media (prefers-color-scheme: dark) { :root { filter: none; } }
</style></svg>